<svg width="20" height="18" viewBox="0 0 20 18" fill="none" xmlns="http://www.w3.org/2000/svg">
<path fill-rule="evenodd" clip-rule="evenodd" d="M20 2.55512C19.2626 2.90332 18.4743 3.13847 17.6436 3.24701C18.4912 2.70435 19.1439 1.84515 19.449 0.823151C18.6565 1.32511 17.7792 1.6914 16.8426 1.88585C16.0924 1.03117 15.0244 0.497559 13.8462 0.497559C11.5787 0.497559 9.74359 2.46016 9.74359 4.87949C9.74359 5.22317 9.7775 5.55781 9.84954 5.87888C6.4378 5.69799 3.41174 3.95246 1.39013 1.29797C1.03836 1.94464 0.834923 2.69983 0.834923 3.50024C0.834923 5.01968 1.56389 6.36274 2.66582 7.14959C1.98771 7.1315 1.35198 6.93253 0.801017 6.60242C0.801017 6.6205 0.801017 6.63859 0.801017 6.65668C0.801017 8.78208 2.21657 10.5502 4.09409 10.9527C3.75079 11.0522 3.38631 11.1064 3.01335 11.1064C2.75058 11.1064 2.49205 11.0793 2.242 11.025C2.7633 12.7661 4.28057 14.0323 6.07756 14.0684C4.67472 15.2442 2.90316 15.9451 0.979021 15.9451C0.648442 15.9451 0.322102 15.9225 0 15.8818C1.80971 17.1389 3.96694 17.8625 6.28099 17.8625C13.8377 17.8625 17.9657 11.1833 17.9657 5.39049C17.9657 5.20056 17.9614 5.01063 17.953 4.82522C18.754 4.20569 19.449 3.43693 20 2.55512V2.55512Z" fill="#2E7D32"/>
</svg>
