<svg width="17" height="19" viewBox="0 0 17 19" fill="none" xmlns="http://www.w3.org/2000/svg">
<ellipse cx="8.25" cy="10.1799" rx="3.5" ry="3.79858" fill="#2E7D32"/>
<path fill-rule="evenodd" clip-rule="evenodd" d="M5.12738 6.20551C6.03397 5.22157 7.23932 4.67387 8.52143 4.67387C9.80353 4.67387 11.0089 5.22445 11.9155 6.20839C12.4907 6.83269 12.9017 7.5829 13.1254 8.42014H16.7285V3.16415C16.7285 1.93108 15.8504 0.978027 14.7142 0.978027H2.37147C1.23533 0.978027 0.271484 1.93108 0.271484 3.16415V8.42014H3.9174C4.1412 7.5829 4.55215 6.82981 5.12738 6.20551V6.20551ZM15.3572 4.84793C15.3572 5.17673 15.1116 5.44329 14.8086 5.44329H13.1628C12.8599 5.44329 12.6143 5.17677 12.6143 4.84793V3.06182C12.6143 2.73302 12.8598 2.46645 13.1628 2.46645H14.8086C15.1116 2.46645 15.3572 2.73297 15.3572 3.06182V4.84793V4.84793Z" fill="#2E7D32"/>
<path fill-rule="evenodd" clip-rule="evenodd" d="M11.9155 13.573C11.0089 14.5569 9.80353 15.093 8.52143 15.093C7.23932 15.093 6.03397 14.5598 5.12738 13.5759C4.22246 12.5938 3.72343 11.2576 3.72155 9.90869H0.271484V16.5601C0.271484 17.7931 1.23533 18.8392 2.37147 18.8392H14.7142C15.8504 18.8392 16.7285 17.7931 16.7285 16.5601V9.90869H13.3213C13.3195 11.2576 12.8204 12.5908 11.9155 13.573V13.573Z" fill="#2E7D32"/>
</svg>
