<svg width="394" height="399" viewBox="0 0 394 399" fill="none" xmlns="http://www.w3.org/2000/svg">
<g id="Deco Left">
<path id="Fill 5" fill-rule="evenodd" clip-rule="evenodd" d="M60.2322 8.95382C55.5127 17.3854 58.5213 28.0481 66.9525 32.7675C75.386 37.488 86.0479 34.4778 90.7676 26.0457C95.4877 17.6141 92.4786 6.95248 84.0452 2.232C75.6141 -2.48743 64.9522 0.521699 60.2322 8.95382Z" fill="#2196F3"/>
<path id="Fill 6" fill-rule="evenodd" clip-rule="evenodd" d="M0 53C0.109894 91.6768 32.7508 123 72.9977 123H73V53H0Z" fill="#FFA000"/>
<path id="Fill 7" fill-rule="evenodd" clip-rule="evenodd" d="M73 53C113.253 53.001 145.89 84.3242 146 123H73V53Z" fill="#FF6F00"/>
<path id="Fill 8" fill-rule="evenodd" clip-rule="evenodd" d="M73 193C113.253 192.999 145.89 161.676 146 123H73V193Z" fill="#C8E6C9"/>
<path id="Fill 9" fill-rule="evenodd" clip-rule="evenodd" d="M29 193C29.1099 154.324 61.7508 123 101.998 123H102V193H29Z" fill="#2E7D32"/>
<path id="Fill 1" fill-rule="evenodd" clip-rule="evenodd" d="M239.5 321H162.5C162.5 364.078 196.974 399 239.5 399V321Z" fill="#FF6F00"/>
<path id="Fill 2" fill-rule="evenodd" clip-rule="evenodd" d="M316.5 321V399H393.5C393.5 355.922 359.027 321 316.5 321Z" fill="#4CAF50"/>
<path id="Fill 3" fill-rule="evenodd" clip-rule="evenodd" d="M239.5 399H316.5V321H239.5V399Z" fill="#2E7D32"/>
<path id="Fill 4" fill-rule="evenodd" clip-rule="evenodd" d="M239.5 321H162.5C162.5 342.478 171.118 361.924 185.052 376L239.5 321Z" fill="#FFF000"/>
<path id="Fill 5_2" fill-rule="evenodd" clip-rule="evenodd" d="M316.5 321V399L371.5 343.845C357.425 329.73 337.979 321 316.5 321Z" fill="#2E7D32"/>
</g>
</svg>
