<svg width="118" height="318" viewBox="0 0 118 318" fill="none" xmlns="http://www.w3.org/2000/svg">
<g id="Deco Right">
<path id="Fill 1" fill-rule="evenodd" clip-rule="evenodd" d="M0.5 0C18.1808 0.0451622 32.5 13.4591 32.5 29.9992V30H0.5V0Z" fill="#4CAF50"/>
<path id="Fill 2" fill-rule="evenodd" clip-rule="evenodd" d="M0.5 30C0.500439 47.0935 14.8196 60.9529 32.5 61V30H0.5Z" fill="#2E7D32"/>
<path id="Fill 3" fill-rule="evenodd" clip-rule="evenodd" d="M64.5 30C64.4996 47.0935 50.1804 60.9529 32.5 61V30H64.5Z" fill="#FFA000"/>
<path id="Fill 4" fill-rule="evenodd" clip-rule="evenodd" d="M64.5 0C46.8196 0.0451622 32.5 13.4591 32.5 29.9992V30H64.5V0Z" fill="#FF6F00"/>
<path id="Fill 1_2" fill-rule="evenodd" clip-rule="evenodd" d="M92.978 74.0594C90.781 74.0594 89 72.2546 89 70.0292C89 67.8038 90.781 66 92.978 66C95.175 66 96.9561 67.8038 96.9561 70.0292C96.9561 72.2546 95.175 74.0594 92.978 74.0594Z" fill="#FF6F00"/>
<path id="Fill 2_2" fill-rule="evenodd" clip-rule="evenodd" d="M92.978 93.4447C90.781 93.4447 89 91.6401 89 89.4154C89 87.1892 90.781 85.3853 92.978 85.3853C95.175 85.3853 96.9561 87.1892 96.9561 89.4154C96.9561 91.6401 95.175 93.4447 92.978 93.4447Z" fill="#FF6F00"/>
<path id="Fill 3_2" fill-rule="evenodd" clip-rule="evenodd" d="M92.978 112.83C90.781 112.83 89 111.026 89 108.8C89 106.575 90.781 104.77 92.978 104.77C95.175 104.77 96.9561 106.575 96.9561 108.8C96.9561 111.026 95.175 112.83 92.978 112.83Z" fill="#FF6F00"/>
<path id="Fill 5" fill-rule="evenodd" clip-rule="evenodd" d="M79.2143 274.163C82.9898 280.908 80.5829 289.438 73.838 293.214C67.0912 296.99 58.5617 294.582 54.7859 287.837C51.0099 281.091 53.4171 272.562 60.1638 268.786C66.9087 265.01 75.4382 267.417 79.2143 274.163Z" fill="#2196F3"/>
<path id="Fill 10" fill-rule="evenodd" clip-rule="evenodd" d="M34 277C34.0006 254.944 52.7945 237.061 76 237V277H34Z" fill="#C8E6C9"/>
<path id="Fill 11" fill-rule="evenodd" clip-rule="evenodd" d="M118 277C117.999 254.944 99.2055 237.061 76 237V277H118Z" fill="#2E7D32"/>
<path id="Fill 12" fill-rule="evenodd" clip-rule="evenodd" d="M76 278C76.0006 300.057 94.7945 317.94 118 318V278H76Z" fill="#4CAF50"/>
<path id="Fill 2_3" fill-rule="evenodd" clip-rule="evenodd" d="M43 285H71V257C55.5361 257 43 269.536 43 285Z" fill="#4CAF50"/>
</g>
</svg>
