<svg width="285" height="105" viewBox="0 0 285 105" fill="none" xmlns="http://www.w3.org/2000/svg">
<path fill-rule="evenodd" clip-rule="evenodd" d="M28.7037 0.336914C41.9928 0.336914 52.7642 10.9892 52.7642 24.1294H4.64331C4.64331 10.9892 15.4168 0.336914 28.7037 0.336914Z" fill="#4CAF50"/>
<path fill-rule="evenodd" clip-rule="evenodd" d="M28.8821 9.03711C39.4059 9.03711 47.9345 17.4635 47.9345 27.858H9.83179C9.83179 17.4635 18.3625 9.03711 28.8821 9.03711Z" fill="#C8E6C9"/>
<path fill-rule="evenodd" clip-rule="evenodd" d="M28.9721 18.4473C36.7768 18.4473 43.1045 24.7273 43.1045 32.4743C43.1045 32.5335 43.1045 32.5928 43.1024 32.652L14.8417 32.6518L14.8396 32.4743C14.8396 24.8047 21.0414 18.5733 28.7392 18.4491L28.9721 18.4473Z" fill="#2E7D32"/>
<path fill-rule="evenodd" clip-rule="evenodd" d="M28.6155 66.0322C12.9955 65.9841 0.350586 53.4026 0.350586 37.8897C0.350586 37.8601 0.350586 37.8304 0.350586 37.8008H28.6155V66.0322Z" fill="#FFECB3"/>
<path fill-rule="evenodd" clip-rule="evenodd" d="M28.6155 66.0322C44.332 65.9843 57.0587 53.4028 57.0587 37.8897C57.0587 37.8601 57.0587 37.8304 57.0566 37.8008H28.6155V66.0322Z" fill="#FFA000"/>
<path fill-rule="evenodd" clip-rule="evenodd" d="M29.4045 89.6102C27.9232 89.6102 26.7231 88.4195 26.7231 86.9501C26.7231 85.481 27.9232 84.29 29.4045 84.29C30.8836 84.29 32.0837 85.481 32.0837 86.9501C32.0837 88.4195 30.8836 89.6102 29.4045 89.6102Z" fill="#4CAF50"/>
<path fill-rule="evenodd" clip-rule="evenodd" d="M29.4045 81.558C27.9232 81.558 26.7231 80.3673 26.7231 78.8979C26.7231 77.4287 27.9232 76.2378 29.4045 76.2378C30.8836 76.2378 32.0837 77.4287 32.0837 78.8979C32.0837 80.3673 30.8836 81.558 29.4045 81.558Z" fill="#4CAF50"/>
<path fill-rule="evenodd" clip-rule="evenodd" d="M29.4045 97.8067C27.9232 97.8067 26.7231 96.6158 26.7231 95.1466C26.7231 93.6775 27.9232 92.4863 29.4045 92.4863C30.8836 92.4863 32.0837 93.6775 32.0837 95.1466C32.0837 96.6158 30.8836 97.8067 29.4045 97.8067Z" fill="#4CAF50"/>
<path fill-rule="evenodd" clip-rule="evenodd" d="M26.7231 152.088V103.63C26.7231 102.201 27.8918 101.042 29.331 101.042C30.7703 101.042 31.9389 102.201 31.9389 103.63V152.088C31.9389 153.518 30.7703 154.677 29.331 154.677C27.8918 154.677 26.7231 153.518 26.7231 152.088Z" fill="#4CAF50"/>
<path fill-rule="evenodd" clip-rule="evenodd" d="M26.7231 152.088V103.63C26.7231 102.201 27.8918 101.042 29.331 101.042V154.677C27.8918 154.677 26.7231 153.518 26.7231 152.088Z" fill="#2E7D32"/>
<path d="M29.3288 154.677V101.042" stroke="#A8A8A8" stroke-width="0.7378"/>
<path fill-rule="evenodd" clip-rule="evenodd" d="M147.254 97.3219C145.985 97.3219 144.955 96.2956 144.955 95.0295C144.955 93.7637 145.985 92.7373 147.254 92.7373C148.525 92.7373 149.556 93.7637 149.556 95.0295C149.556 96.2956 148.525 97.3219 147.254 97.3219Z" fill="#4CAF50"/>
<path fill-rule="evenodd" clip-rule="evenodd" d="M147.254 90.3834C145.985 90.3834 144.955 89.357 144.955 88.0912C144.955 86.825 145.985 85.7988 147.254 85.7988C148.525 85.7988 149.556 86.825 149.556 88.0912C149.556 89.357 148.525 90.3834 147.254 90.3834Z" fill="#4CAF50"/>
<path fill-rule="evenodd" clip-rule="evenodd" d="M147.254 104.385C145.985 104.385 144.955 103.358 144.955 102.092C144.955 100.826 145.985 99.7998 147.254 99.7998C148.525 99.7998 149.556 100.826 149.556 102.092C149.556 103.358 148.525 104.385 147.254 104.385Z" fill="#4CAF50"/>
<path fill-rule="evenodd" clip-rule="evenodd" d="M122.587 34.167C136.218 34.2091 147.254 45.3 147.254 58.9753V58.8976H122.587V34.167Z" fill="#E0E0E0"/>
<path fill-rule="evenodd" clip-rule="evenodd" d="M147.334 34.0887C152.031 34.0887 155.843 30.2936 155.843 25.6119C155.843 20.9303 152.031 17.1348 147.334 17.1348C142.634 17.1348 138.825 20.9303 138.825 25.6119C138.825 30.2936 142.634 34.0887 147.334 34.0887Z" fill="#4CAF50"/>
<path fill-rule="evenodd" clip-rule="evenodd" d="M122.587 34.167C136.218 34.2091 147.254 45.3 147.254 58.9753V58.8976H122.587V34.167Z" fill="#C8E6C9"/>
<path fill-rule="evenodd" clip-rule="evenodd" d="M171.922 34.167C158.291 34.2091 147.254 45.3 147.254 58.9753L147.256 58.8976H171.922V34.167Z" fill="#FFA000"/>
<path fill-rule="evenodd" clip-rule="evenodd" d="M147.254 83.4731C133.623 83.4306 122.587 72.3397 122.587 58.6643C122.587 58.6383 122.587 58.6123 122.587 58.5864H147.254V83.4731Z" fill="#FFECB3"/>
<path fill-rule="evenodd" clip-rule="evenodd" d="M147.254 83.4731C160.885 83.4306 171.922 72.3397 171.922 58.6643V58.5864H147.254V83.4731Z" fill="#4CAF50"/>
<path fill-rule="evenodd" clip-rule="evenodd" d="M79.2336 81.3409C87.015 73.9682 99.3601 74.2917 106.836 82.0755L106.794 82.0315L92.7537 95.4169L79.2336 81.3409Z" fill="#E0E0E0"/>
<path fill-rule="evenodd" clip-rule="evenodd" d="M93.2743 67.8682C95.9503 65.3184 96.0423 61.0908 93.4833 58.4262C90.9244 55.7615 86.6804 55.6686 84.0065 58.2186C81.3305 60.7688 81.2385 64.996 83.7974 67.6607C86.3585 70.3253 90.6004 70.4184 93.2743 67.8682Z" fill="#FF6F00"/>
<path fill-rule="evenodd" clip-rule="evenodd" d="M79.2336 81.3409C87.015 73.9682 99.3601 74.2917 106.836 82.0755L106.794 82.0315L92.7537 95.4169L79.2336 81.3409Z" fill="#4CAF50"/>
<path fill-rule="evenodd" clip-rule="evenodd" d="M107.313 54.5693C99.5774 61.9901 99.36 74.2918 106.836 82.0756L106.794 82.031L120.835 68.6454L107.313 54.5693Z" fill="#FFA000"/>
<path fill-rule="evenodd" clip-rule="evenodd" d="M120.231 96.0186C112.45 103.391 100.102 103.068 92.6263 95.284C92.6117 95.2694 92.5991 95.2546 92.5845 95.2396L106.625 81.854L120.231 96.0186Z" fill="#C8E6C9"/>
<path fill-rule="evenodd" clip-rule="evenodd" d="M120.231 96.0187C127.964 88.5977 128.184 76.2962 120.705 68.5124C120.693 68.4976 120.678 68.4828 120.664 68.4683L106.625 81.8541L120.231 96.0187Z" fill="#FFECB3"/>
<path fill-rule="evenodd" clip-rule="evenodd" d="M214.88 81.3413C207.099 73.9687 194.753 74.2922 187.277 82.076L187.319 82.032L201.36 95.4174L214.88 81.3413Z" fill="#E0E0E0"/>
<path fill-rule="evenodd" clip-rule="evenodd" d="M200.839 67.8687C198.163 65.3189 198.071 61.0913 200.63 58.4267C203.189 55.7619 207.433 55.669 210.107 58.2191C212.783 60.7693 212.875 64.9964 210.316 67.6612C207.757 70.3258 203.513 70.4189 200.839 67.8687Z" fill="#FF6F00"/>
<path fill-rule="evenodd" clip-rule="evenodd" d="M214.88 81.3413C207.099 73.9687 194.753 74.2922 187.277 82.076L187.319 82.032L201.36 95.4174L214.88 81.3413Z" fill="#4CAF50"/>
<path fill-rule="evenodd" clip-rule="evenodd" d="M186.801 54.5693C194.536 61.9901 194.753 74.2918 187.277 82.0756L187.319 82.031L173.281 68.6454L186.801 54.5693Z" fill="#FFECB3"/>
<path fill-rule="evenodd" clip-rule="evenodd" d="M173.885 96.0191C181.664 103.392 194.011 103.068 201.487 95.2845C201.502 95.2699 201.515 95.2551 201.529 95.2401L187.491 81.8545L173.885 96.0191Z" fill="#C8E6C9"/>
<path fill-rule="evenodd" clip-rule="evenodd" d="M173.885 96.0192C166.15 88.5982 165.93 76.2965 173.408 68.5129C173.421 68.4981 173.435 68.4833 173.45 68.4688L187.491 81.8546L173.885 96.0192Z" fill="#2E7D32"/>
<path fill-rule="evenodd" clip-rule="evenodd" d="M169.453 99.7731C169.106 99.3795 169.143 98.7796 169.538 98.4334C169.934 98.0871 170.536 98.1254 170.885 98.519C171.232 98.9125 171.192 99.5123 170.797 99.8585C170.402 100.205 169.802 100.167 169.453 99.7731Z" fill="#4CAF50"/>
<path fill-rule="evenodd" clip-rule="evenodd" d="M171.618 97.8748C171.271 97.4814 171.309 96.8817 171.704 96.5353C172.099 96.1892 172.701 96.2275 173.048 96.6209C173.398 97.0146 173.358 97.6142 172.963 97.9606C172.568 98.3068 171.966 98.2685 171.618 97.8748Z" fill="#4CAF50"/>
<path fill-rule="evenodd" clip-rule="evenodd" d="M167.249 101.705C166.902 101.312 166.94 100.712 167.335 100.366C167.73 100.019 168.332 100.058 168.679 100.451C169.028 100.845 168.988 101.444 168.593 101.791C168.198 102.137 167.596 102.099 167.249 101.705Z" fill="#4CAF50"/>
<path fill-rule="evenodd" clip-rule="evenodd" d="M152.025 113.787L165.054 102.365C165.439 102.028 166.024 102.065 166.363 102.448C166.701 102.831 166.664 103.415 166.279 103.752L153.248 115.173C152.866 115.51 152.28 115.473 151.942 115.09C151.603 114.707 151.641 114.124 152.025 113.787Z" fill="#4CAF50"/>
<path fill-rule="evenodd" clip-rule="evenodd" d="M152.025 113.787L165.054 102.365C165.439 102.028 166.024 102.065 166.363 102.448L151.942 115.09C151.603 114.707 151.641 114.124 152.025 113.787Z" fill="#2E7D32"/>
<path d="M151.929 115.07L166.35 102.427" stroke="#A8A8A8" stroke-width="0.7378"/>
<path fill-rule="evenodd" clip-rule="evenodd" d="M124.661 99.7731C125.008 99.3795 124.97 98.7796 124.575 98.4334C124.18 98.0871 123.578 98.1254 123.231 98.519C122.882 98.9125 122.921 99.5123 123.317 99.8585C123.712 100.205 124.314 100.167 124.661 99.7731Z" fill="#4CAF50"/>
<path fill-rule="evenodd" clip-rule="evenodd" d="M122.495 97.8748C122.844 97.4814 122.804 96.8817 122.409 96.5353C122.014 96.1892 121.412 96.2275 121.065 96.6209C120.718 97.0146 120.756 97.6142 121.151 97.9606C121.546 98.3068 122.148 98.2685 122.495 97.8748Z" fill="#4CAF50"/>
<path fill-rule="evenodd" clip-rule="evenodd" d="M126.864 101.705C127.211 101.312 127.174 100.712 126.779 100.366C126.384 100.019 125.781 100.058 125.434 100.451C125.087 100.845 125.125 101.444 125.52 101.791C125.915 102.137 126.517 102.099 126.864 101.705Z" fill="#4CAF50"/>
<path fill-rule="evenodd" clip-rule="evenodd" d="M142.09 113.787L129.06 102.365C128.675 102.028 128.089 102.065 127.751 102.448C127.414 102.831 127.45 103.415 127.834 103.752L140.865 115.173C141.25 115.51 141.835 115.473 142.174 115.09C142.511 114.707 142.473 114.124 142.09 113.787Z" fill="#4CAF50"/>
<path fill-rule="evenodd" clip-rule="evenodd" d="M142.091 113.787L129.06 102.365C128.675 102.028 128.09 102.065 127.751 102.448L142.174 115.09C142.511 114.707 142.473 114.124 142.091 113.787Z" fill="#2E7D32"/>
<path d="M142.17 115.114L127.749 102.472" stroke="#A8A8A8" stroke-width="0.7378"/>
<path fill-rule="evenodd" clip-rule="evenodd" d="M255.475 64.6348C261.533 64.6348 266.446 59.7868 266.446 53.8062C266.446 47.8256 261.533 42.9775 255.475 42.9775C249.416 42.9775 244.505 47.8256 244.505 53.8062C244.505 59.7868 249.416 64.6348 255.475 64.6348Z" fill="#4CAF50"/>
<path fill-rule="evenodd" clip-rule="evenodd" d="M256.38 71.9863C272.056 71.9863 284.762 84.5293 284.762 100.002V156.63H228V100.002C228 84.5293 240.707 71.9863 256.38 71.9863Z" fill="#2196F3"/>
<path fill-rule="evenodd" clip-rule="evenodd" d="M256.481 99.8034C258.539 99.8034 260.206 98.1576 260.206 96.1275C260.206 94.0974 258.539 92.4517 256.481 92.4517C254.426 92.4517 252.758 94.0974 252.758 96.1275C252.758 98.1576 254.426 99.8034 256.481 99.8034Z" fill="white"/>
<path fill-rule="evenodd" clip-rule="evenodd" d="M256.481 88.6767C258.539 88.6767 260.206 87.0312 260.206 85.0011C260.206 82.9707 258.539 81.3252 256.481 81.3252C254.426 81.3252 252.758 82.9707 252.758 85.0011C252.758 87.0312 254.426 88.6767 256.481 88.6767Z" fill="white"/>
<path fill-rule="evenodd" clip-rule="evenodd" d="M256.481 111.129C258.539 111.129 260.206 109.483 260.206 107.453C260.206 105.423 258.539 103.777 256.481 103.777C254.426 103.777 252.758 105.423 252.758 107.453C252.758 109.483 254.426 111.129 256.481 111.129Z" fill="white"/>
</svg>
