<svg width="19" height="20" viewBox="0 0 19 20" fill="none" xmlns="http://www.w3.org/2000/svg">
<path fill-rule="evenodd" clip-rule="evenodd" d="M17.0605 0.412109H2.0379C1.21737 0.412109 0.5 1.05329 0.5 1.93363V18.2735C0.5 19.1589 1.21737 19.9477 2.0379 19.9477H17.0558C17.8811 19.9477 18.5 19.1538 18.5 18.2735V1.93363C18.5047 1.05329 17.8811 0.412109 17.0605 0.412109V0.412109ZM6.07959 16.696H3.50073V7.99428H6.07959V16.696V16.696ZM4.87926 6.67122H4.8605C4.03526 6.67122 3.50073 6.0046 3.50073 5.17005C3.50073 4.32024 4.04933 3.66888 4.89332 3.66888C5.73732 3.66888 6.2531 4.31515 6.27185 5.17005C6.27185 6.0046 5.73732 6.67122 4.87926 6.67122V6.67122ZM15.5039 16.696H12.9251V11.938C12.9251 10.7982 12.55 10.0196 11.6169 10.0196C10.9043 10.0196 10.4823 10.5437 10.2947 11.0526C10.2244 11.2358 10.2056 11.4851 10.2056 11.7396V16.696H7.62683V7.99428H10.2056V9.20539C10.5807 8.62528 11.1668 7.79073 12.5312 7.79073C14.2239 7.79073 15.5039 9.00185 15.5039 11.6124V16.696V16.696Z" fill="#2E7D32"/>
</svg>
